# xmcd CD database file
#
# Track frame offsets:
#	150
#	15755
#	33915
#	56455
#	75182
#	91702
#	110135
#	129160
#	147142
#	165562
#	185145
#	200337
#	217307
#	234917
#
# Disc length: 3368 seconds
#
# Revision: 0
# Processed by: cddbd v1.5.2PL0 Copyright (c) Steve Scherf et al.
# Submitted via: CDex 1.51
#
DISCID=aa0d260e
DTITLE=Carrie Underwood - Blown Away
DYEAR=2012
DGENRE=Country
TTITLE0=Good Girl
TTITLE1=Blown Away
TTITLE2=Two Black Cadillacs
TTITLE3=See You Again
TTITLE4=Do You Think About Me
TTITLE5=Forever Changed
TTITLE6=Nobody Ever Told You
TTITLE7=One Way Ticket
TTITLE8=Thank God for Hometowns
TTITLE9=Good in Goodbye
TTITLE10=Leave Love Alone
TTITLE11=Cupid's Got a Shotgun
TTITLE12=Wine After Whiskey
TTITLE13=Who Are You
EXTD=YEAR: 2012
EXTT0=
EXTT1=
EXTT2=
EXTT3=
EXTT4=
EXTT5=
EXTT6=
EXTT7=
EXTT8=
EXTT9=
EXTT10=
EXTT11=
EXTT12=
EXTT13=
PLAYORDER=
